<?xml version="1.0" encoding="utf-8"?>
<!-- Generator: Adobe Illustrator 24.0.1, SVG Export Plug-In . SVG Version: 6.00 Build 0)  -->
<svg version="1.1" id="Capa_1" xmlns="http://www.w3.org/2000/svg" xmlns:xlink="http://www.w3.org/1999/xlink" x="0px" y="0px"
	 viewBox="0 0 448.7 448.7" style="enable-background:new 0 0 448.7 448.7;" xml:space="preserve">
<style type="text/css">
	.st0{opacity:0.3;}
</style>
<path id="XMLID_151_" class="st0" d="M334.5,51.7c0,0-2.1-77.9-88-42.6c-0.9,0.4-1.4,1.4-1.2,2.3c0.3,1,1.2,1.6,2.2,1.5
	c16.9-2.2,39.8,0.5,51,27c0,0-53.1-34-123.2,47.5c-0.6,0.7-0.6,1.9,0,2.6c0.7,0.7,1.8,0.9,2.6,0.3c22.6-15.1,71.5-41.3,103.3-11.4
	c0,0-68.4-4.2-75.9,88.7c-49-56-86-32.4-86-32.4c7.9-18.8,24.1-20.6,36.1-19c0.7,0.1,1.4-0.3,1.5-1c0.2-0.7-0.2-1.4-0.8-1.7
	c-59.9-24.8-55.8,31.4-55.8,31.4c-63.8-15.9-62.3,59.7-59.3,89.5c0.1,0.7,0.6,1.2,1.3,1.3c0.7,0,1.3-0.5,1.4-1.2
	c7.6-43.9,44.6-62.9,44.6-62.9c-33.8,48.2-22.9,99.8-13.4,126.1c0.4,1,1.4,1.5,2.4,1.3c1-0.2,1.7-1.2,1.6-2.2
	c-5.7-53.2,30.7-95.8,38.4-104.2c26.3,35.4,35.4,93.8,38.3,134.7c-54.6,13.7-93.6,46.5-93.6,69c0,28.9,64.7,52.4,144.5,52.4
	c79.8,0,144.5-23.5,144.5-52.4c0-21.6-36-52.8-87.3-67.4c-2.6-62.6,3.9-145,46.8-196.3c18.4,23.4,51.4,74.8,44.8,136.1
	c-0.2,1.5,0.8,2.8,2.2,3.1c1.4,0.3,2.9-0.5,3.4-1.8c13.4-37.3,28.9-110.4-19-178.6c0,0,49.8,25.5,62.3,84.4c0.2,1,1.1,1.6,2.1,1.6
	c1-0.1,1.8-0.9,1.8-1.9C409.7,131.1,404.5,34.3,334.5,51.7z M191.8,321.5c-0.3,0-0.6,0.1-0.9,0.1c-8.7-72.5-37.9-113.7-55.8-132.5
	c25,1.5,39.9,25.3,46.6,39.4c0.4,0.9,1.4,1.4,2.4,1.1c1-0.2,1.6-1.1,1.5-2.1c-4.4-67.9-53.8-64.8-53.8-64.8
	c22.3-20.9,57.4-2.4,73.5,8.4c0.1,1.2,0.9,2.2,2.1,2.5c1.4,0.3,2.8-0.3,3.3-1.6c9.9-21,32.6-57.2,71-56
	C258.6,145.8,215.1,213.6,191.8,321.5z"/>
</svg>
